<svg xmlns="http://www.w3.org/2000/svg" xmlns:xlink="http://www.w3.org/1999/xlink" version="1.1"
  x="0px" y="0px" viewBox="0 0 64 80" xml:space="preserve">
  <path fill="#ffffff" d="M48.746,39.879c-0.774,0.865-1.672,1.09-2.423,1.078c0.387-1.609,0.188-12.454-12.727-13.595  c-3.157-0.279-4.609-2.313-6.188-3.966c0.814-0.357,1.918-0.685,3.652-1.362c3.896-1.521,6.003-6.395,4.346-6.013  c-1.655,0.384-4.768,1.377-7.398,2.567c-1.295,0.585-2.471,1.797-3.331,2.877c-0.46-0.151-0.968-0.238-1.54-0.238  c-2.955,0.001-4.537,1.711-6.158,3.532c-1.621,1.822-2.745,2.204-2.403,3.514c0.157,0.603,0.438,1.201,1.218,1.489  c0.917,0.338,2.403,0.316,3.427,0.39c3.097,0.227,3.903,3.282,4.2,3.913c1.026,2.175,2.025,3.471,3.071,4.423  c0.521,0.475,1.564,2.484,1.542,3.041c-0.098,2.538-0.216,4.119-1.248,4.363c-1.437,0.337-1.729,2.106-1.139,2.106  c0.592,0,1.184,0,1.691,0s1.438,0,1.775-0.679c0.235-0.466,1.113-3.831,1.635-5.874c0,0,1.252,1.62,4.792,2.699  c0.127,0.351,0.292,0.707,0.508,1.061c0,0-3.382-0.508-4.649,0.592c-1.271,1.101-0.171,2.201,1.775,2.201s7.866,0,9.134,0  c1.269,0,1.584-1.645,0.353-2.232c0,0,1.025-0.697,1.618-2.188C49.509,47.183,50.37,38.061,48.746,39.879z M20.565,25.806  c-0.463,0.109-0.92-0.052-1.223-0.373c0.129-0.424,0.47-0.769,0.931-0.878c0.463-0.106,0.92,0.054,1.223,0.376  C21.367,25.353,21.026,25.699,20.565,25.806z"/>
</svg>